<svg width="20" height="20" viewBox="0 0 20 20" fill="none" xmlns="http://www.w3.org/2000/svg">
<g clip-path="url(#clip0_265_2342)">
<path d="M19.7894 16.5797L13.6175 14.4719L13.5941 12.2047C13.8702 11.6724 14.0801 11.1083 14.2191 10.525H14.3034C14.417 10.52 14.5282 10.4904 14.6291 10.438C14.73 10.3856 14.8183 10.3119 14.8878 10.2219L14.9034 10.2031C15.4206 9.62656 15.8862 7.67344 15.7597 6.97031C15.7336 6.84457 15.6888 6.72343 15.6269 6.61094V5.625C15.6253 1.62969 14.0019 0 10.0237 0C6.43468 0 4.3753 2.05 4.3753 5.625V6.61562C4.31335 6.72812 4.26859 6.84925 4.24249 6.975C4.11593 7.67812 4.58155 9.63125 5.09874 10.2078L5.11436 10.2266C5.18367 10.3164 5.27171 10.39 5.37236 10.4424C5.47301 10.4947 5.58385 10.5245 5.69718 10.5297C5.84672 11.1072 6.06714 11.6641 6.35343 12.1875L6.28155 14.4547L0.209676 16.5797C0.131354 16.607 0.0671051 16.6644 0.031063 16.7391C-0.00497919 16.8138 -0.00986213 16.8998 0.0174883 16.9781C0.0448388 17.0564 0.102182 17.1207 0.176904 17.1567C0.251625 17.1928 0.337604 17.1977 0.415926 17.1703L6.27686 15.1188L6.5628 19.7078C6.56797 19.7871 6.60316 19.8615 6.66121 19.9158C6.71927 19.97 6.79582 20.0002 6.8753 20H6.89561C6.97827 19.9948 7.05547 19.957 7.11026 19.8948C7.16504 19.8327 7.19293 19.7514 7.1878 19.6687L7.15499 19.15L7.72218 19.8797C7.75013 19.9156 7.78558 19.945 7.82607 19.9657C7.86655 19.9865 7.91108 19.9982 7.95655 20H7.96905C8.01228 19.9999 8.05501 19.9908 8.09455 19.9733C8.13408 19.9558 8.16956 19.9303 8.19874 19.8984L9.84405 18.1031C9.895 18.117 9.9475 18.1243 10.0003 18.125C10.0532 18.124 10.1057 18.1161 10.1566 18.1016L11.805 19.8984C11.8338 19.9299 11.8688 19.9552 11.9077 19.9727C11.9467 19.9902 11.9889 19.9994 12.0316 20H12.0441C12.0895 19.9982 12.1341 19.9865 12.1745 19.9657C12.215 19.945 12.2505 19.9156 12.2784 19.8797L12.8284 19.1719L12.8128 19.6781C12.8116 19.7192 12.8184 19.7601 12.833 19.7984C12.8475 19.8368 12.8695 19.872 12.8977 19.9019C12.9258 19.9318 12.9596 19.9558 12.997 19.9727C13.0345 19.9895 13.0749 19.9988 13.1159 20H13.1253C13.2066 20 13.2847 19.9684 13.343 19.9118C13.4014 19.8552 13.4354 19.7781 13.4378 19.6969L13.58 15.1203L19.5862 17.1703C19.6636 17.1938 19.7471 17.1863 19.8192 17.1495C19.8912 17.1127 19.9461 17.0494 19.9725 16.9729C19.9988 16.8964 19.9944 16.8127 19.9602 16.7394C19.9261 16.666 19.8648 16.6088 19.7894 16.5797ZM6.93936 11.9516L6.92999 11.9344C6.61135 11.3552 6.3777 10.7332 6.23624 10.0875C6.06922 9.33754 5.9771 8.57285 5.96124 7.80469V7.54375C6.17061 8.07031 6.64561 8.4375 7.65655 8.4375C9.43936 8.4375 9.6253 6.9375 9.6878 6.44375C9.6878 6.39531 9.69718 6.325 9.69874 6.25H10.3394C10.3394 6.325 10.3394 6.39531 10.3503 6.44375C10.4081 6.9375 10.5925 8.4375 12.3753 8.4375C13.1972 8.4375 13.6659 8.19375 13.9378 7.8125C13.8206 11.6234 12.3612 13.9062 10.0315 13.9062C8.90655 13.9062 7.73936 13.3438 6.93936 11.9516ZM12.3753 5C11.7177 5.01538 11.0738 5.19189 10.5003 5.51406C10.4551 5.54122 10.4174 5.57938 10.3909 5.625H9.64561C9.61911 5.57938 9.58148 5.54122 9.53624 5.51406C8.96144 5.19085 8.31584 5.01429 7.65655 5C7.09636 4.994 6.54064 5.10025 6.02218 5.3125C6.17843 4.05 6.62843 3.0875 7.74093 2.58125C7.8896 2.52094 8.04934 2.49272 8.20968 2.49844C8.4467 2.50533 8.68308 2.52672 8.91749 2.5625C9.27972 2.61618 9.64509 2.64593 10.0112 2.65156C10.3781 2.64521 10.7438 2.60968 11.105 2.54531C11.5487 2.47813 11.8987 2.42344 12.1628 2.53437C13.3472 3.03125 13.7675 4.01875 13.9066 5.27188C13.4172 5.08801 12.8981 4.99585 12.3753 5ZM13.6253 5.83594V6.40625C13.6253 7.37813 13.4456 7.8125 12.3753 7.8125C11.305 7.8125 11.0597 7.11875 10.969 6.36875C10.9622 6.23707 10.9622 6.10512 10.969 5.97344C11.4069 5.75658 11.8868 5.63768 12.3753 5.625C12.801 5.62228 13.224 5.69366 13.6253 5.83594ZM9.0628 6.36875C8.96905 7.11875 8.73468 7.8125 7.65655 7.8125C6.57843 7.8125 6.40655 7.37813 6.40655 6.40625V5.83594C6.80783 5.69366 7.2308 5.62228 7.65655 5.625C8.14492 5.63852 8.62461 5.75738 9.0628 5.97344C9.07218 6.13281 9.07374 6.30469 9.0628 6.36875ZM14.4316 9.79219L14.4128 9.8125C14.3878 9.84062 14.3691 9.8625 14.3519 9.87813C14.4703 9.19867 14.5382 8.51137 14.555 7.82188C14.5644 7.47969 14.5753 7.13594 14.5784 6.79375C14.6268 6.76209 14.6813 6.741 14.7384 6.73184C14.7955 6.72269 14.8538 6.72568 14.9097 6.74062C14.9687 6.78049 15.0193 6.83168 15.0585 6.89122C15.0976 6.95076 15.1246 7.01747 15.1378 7.0875C15.2409 7.65625 14.7847 9.39687 14.4316 9.79219ZM10.0237 0.625C13.6519 0.625 15.0003 1.97969 15.0003 5.625V6.11719C14.8589 6.08957 14.713 6.09438 14.5737 6.13125C14.53 4.32656 14.1628 2.69375 12.4144 1.9625C11.9862 1.78438 11.5175 1.85625 11.019 1.93281C10.6904 1.99165 10.3576 2.02456 10.0237 2.03125C9.68265 2.02593 9.3423 1.99774 9.00499 1.94687C8.43624 1.87344 7.94561 1.81094 7.48936 2.01719C5.78155 2.78594 5.39093 4.44063 5.32686 6.11094C5.21892 6.09099 5.10824 6.09099 5.0003 6.11094V5.625C5.0003 3.75781 5.65343 0.625 10.0237 0.625ZM4.86749 7.0875C4.8807 7.01747 4.90766 6.95076 4.94682 6.89122C4.98597 6.83168 5.03655 6.78049 5.09561 6.74062C5.16755 6.71309 5.24712 6.71309 5.31905 6.74062C5.31905 7.10625 5.32999 7.46719 5.34093 7.81406C5.3572 8.45591 5.42092 9.09568 5.53155 9.72812C5.17999 9.25937 4.76436 7.63125 4.8628 7.0875H4.86749ZM7.99249 19.2031L7.1253 18.0891C7.11413 18.0758 7.10213 18.0633 7.08936 18.0516L6.93311 15.5641C7.61905 16.3453 8.54874 17.3156 9.27686 17.8078L7.99249 19.2031ZM6.89874 14.5781L6.94874 13.0656C7.32043 13.5228 7.78921 13.8915 8.32107 14.145C8.85293 14.3985 9.43455 14.5304 10.0237 14.5312C10.5875 14.5256 11.1432 14.3968 11.6519 14.1539C12.1607 13.911 12.6102 13.5598 12.9691 13.125L12.9847 14.4297C11.8409 15.9094 10.3847 17.4781 10.0003 17.5C9.61905 17.4875 8.10811 15.9969 6.90186 14.5781H6.89874ZM12.0081 19.2031L10.7191 17.7969C11.4097 17.2922 12.2816 16.2984 12.9409 15.4922L12.8581 18.1125L12.0081 19.2031Z" fill="black"/>
<path d="M8.40324 11.234C8.62405 11.1587 8.85345 11.1115 9.08605 11.0934C9.25626 11.1242 9.4207 11.1812 9.57355 11.2622C9.71225 11.3401 9.86536 11.389 10.0236 11.4059C10.2118 11.3823 10.3926 11.3178 10.5532 11.2168C10.6396 11.1716 10.7282 11.1309 10.8189 11.095C10.922 11.1043 11.2486 11.1747 11.5095 11.2403C11.5493 11.2505 11.5907 11.2529 11.6314 11.2471C11.6721 11.2413 11.7113 11.2276 11.7467 11.2067C11.7821 11.1858 11.8131 11.1582 11.8378 11.1253C11.8625 11.0925 11.8805 11.0551 11.8907 11.0153C11.901 10.9755 11.9033 10.934 11.8976 10.8933C11.8918 10.8526 11.8781 10.8135 11.8572 10.7781C11.8363 10.7427 11.8086 10.7117 11.7758 10.687C11.7429 10.6623 11.7055 10.6443 11.6657 10.634C11.3835 10.5567 11.0956 10.5014 10.8048 10.4684C10.6161 10.4919 10.4347 10.5565 10.2736 10.6575C10.2001 10.695 10.0845 10.7528 10.0236 10.7747C9.97668 10.7575 9.89386 10.7215 9.83136 10.6918C9.60041 10.5682 9.34695 10.4922 9.08605 10.4684C8.78652 10.4866 8.49073 10.5444 8.20636 10.6403C8.12763 10.6664 8.06249 10.7227 8.02527 10.7968C7.98806 10.871 7.98182 10.9569 8.00793 11.0356C8.03403 11.1143 8.09035 11.1795 8.16448 11.2167C8.23862 11.2539 8.3245 11.2601 8.40324 11.234ZM9.08605 9.37465C9.24965 9.37439 9.41219 9.40078 9.5673 9.45278C9.86256 9.5569 10.1845 9.5569 10.4798 9.45278C10.6349 9.40078 10.7975 9.37439 10.9611 9.37465C11.0439 9.37465 11.1234 9.34173 11.182 9.28313C11.2406 9.22452 11.2736 9.14503 11.2736 9.06215C11.2736 8.97927 11.2406 8.89979 11.182 8.84118C11.1234 8.78258 11.0439 8.74965 10.9611 8.74965C10.7389 8.74923 10.518 8.78349 10.3064 8.85122C10.2153 8.88313 10.12 8.90155 10.0236 8.9059C9.92708 8.90185 9.83176 8.88342 9.74074 8.85122C9.52909 8.78364 9.30822 8.74938 9.08605 8.74965C9.00317 8.74965 8.92368 8.78258 8.86508 8.84118C8.80647 8.89979 8.77355 8.97927 8.77355 9.06215C8.77355 9.14503 8.80647 9.22452 8.86508 9.28313C8.92368 9.34173 9.00317 9.37465 9.08605 9.37465ZM6.93136 6.54497C6.96827 6.61912 7.03311 6.67558 7.11163 6.70195C7.19015 6.72832 7.27593 6.72243 7.35011 6.68559C7.40791 6.65877 7.46741 6.63581 7.52824 6.61684C7.54072 6.68443 7.57514 6.74601 7.62616 6.79206C7.67718 6.83811 7.74195 6.86606 7.81046 6.87157C7.87896 6.87709 7.94738 6.85987 8.00511 6.82257C8.06284 6.78528 8.10666 6.73 8.1298 6.66528C8.18181 6.69945 8.24257 6.7179 8.3048 6.7184C8.36642 6.71815 8.42658 6.69968 8.47773 6.66532C8.52888 6.63097 8.56873 6.58226 8.59227 6.52532C8.61582 6.46838 8.62201 6.40575 8.61006 6.3453C8.59811 6.28485 8.56855 6.22929 8.52511 6.18559C8.33602 6.01708 8.08917 5.92808 7.83605 5.93715C7.57053 5.94666 7.30985 6.01104 7.07043 6.12622C6.99655 6.16341 6.94043 6.22836 6.91436 6.30686C6.8883 6.38535 6.89441 6.47097 6.93136 6.54497ZM11.4985 6.18559C11.4551 6.22929 11.4256 6.28485 11.4136 6.3453C11.4017 6.40575 11.4078 6.46838 11.4314 6.52532C11.4549 6.58226 11.4948 6.63097 11.5459 6.66532C11.5971 6.69968 11.6572 6.71815 11.7189 6.7184C11.7825 6.71785 11.8444 6.69705 11.8954 6.65903C11.9171 6.72521 11.9602 6.78228 12.0179 6.82117C12.0757 6.86006 12.1448 6.87855 12.2142 6.87371C12.2837 6.86886 12.3495 6.84096 12.4013 6.79442C12.4531 6.74789 12.4879 6.68539 12.5001 6.61684C12.5615 6.63559 12.6216 6.65856 12.6798 6.68559C12.7167 6.70537 12.7572 6.71754 12.7988 6.72138C12.8405 6.72521 12.8825 6.72064 12.9224 6.70793C12.9623 6.69522 12.9992 6.67463 13.0309 6.64739C13.0627 6.62014 13.0887 6.58679 13.1073 6.54932C13.1259 6.51185 13.1369 6.47102 13.1394 6.42925C13.142 6.38747 13.1361 6.34562 13.1222 6.30615C13.1082 6.26669 13.0865 6.23043 13.0583 6.19952C13.0301 6.16861 12.996 6.14368 12.9579 6.12622C12.7173 6.00988 12.4548 5.94547 12.1876 5.93715C11.9345 5.92808 11.6876 6.01708 11.4985 6.18559ZM10.3126 11.5622H9.68761C9.60473 11.5622 9.52525 11.5951 9.46664 11.6537C9.40804 11.7123 9.37511 11.7918 9.37511 11.8747C9.37511 11.9575 9.40804 12.037 9.46664 12.0956C9.52525 12.1542 9.60473 12.1872 9.68761 12.1872H10.3126C10.3955 12.1872 10.475 12.1542 10.5336 12.0956C10.5922 12.037 10.6251 11.9575 10.6251 11.8747C10.6251 11.7918 10.5922 11.7123 10.5336 11.6537C10.475 11.5951 10.3955 11.5622 10.3126 11.5622Z" fill="black"/>
</g>
<defs>
<clipPath id="clip0_265_2342">
<rect width="20" height="20" fill="white"/>
</clipPath>
</defs>
</svg>
